<svg xmlns="http://www.w3.org/2000/svg" width="67.458" height="54.034" viewBox="0 0 67.458 54.034"><defs><style>.a{fill:#fff;}</style></defs><g transform="translate(-543 -250)"><path class="a" d="M699.638,309.344h13.09a1.021,1.021,0,1,0,0-2.042h-13.09a1.021,1.021,0,0,0,0,2.042Z" transform="translate(-129.13 -47.548)"/><path class="a" d="M699.638,375.258h13.09a1.021,1.021,0,1,0,0-2.043h-13.09a1.021,1.021,0,0,0,0,2.043Z" transform="translate(-129.13 -102.243)"/><path class="a" d="M642.42,280.17l-4.868,5.332-1.515-1.6a1.022,1.022,0,1,0-1.485,1.4l2.271,2.4a1.024,1.024,0,0,0,.743.32h.009a1.022,1.022,0,0,0,.746-.333l5.61-6.144a1.021,1.021,0,0,0-1.509-1.377Z" transform="translate(-75.737 -24.759)"/><path class="a" d="M642.42,348.95l-4.868,5.332-1.516-1.6a1.021,1.021,0,0,0-1.485,1.4l2.271,2.4a1.024,1.024,0,0,0,.743.32h.009a1.02,1.02,0,0,0,.746-.332l5.61-6.144a1.022,1.022,0,0,0-1.509-1.378Z" transform="translate(-75.737 -81.832)"/><path class="a" d="M642.42,417.727l-4.868,5.332-1.516-1.6a1.021,1.021,0,0,0-1.485,1.4l2.271,2.4a1.024,1.024,0,0,0,.743.32h.009a1.022,1.022,0,0,0,.746-.333l5.61-6.144a1.021,1.021,0,0,0-1.509-1.377Z" transform="translate(-75.737 -138.903)"/><path class="a" d="M610.424,276.876c-.21-1.091-.21-1.091-.352-1.091h-.049c-.687-1.018-2.236-1.612-4.56-1.737,2.943-3.113,4.416-5.6,4.264-7.209a1.92,1.92,0,0,0-.836-1.442,2.018,2.018,0,0,0-1.193-.357,6.1,6.1,0,0,0-2.728.926,21.138,21.138,0,0,0-4.352,3.3c-.14-1.866-.97-5.057-2.992-5.057a2.889,2.889,0,0,0-1.708.689c-3.071,2.338-3.769,7.676-3.927,10.077a8.953,8.953,0,0,0-1.447-.205V251.021A1.022,1.022,0,0,0,589.523,250H554.364a1.021,1.021,0,0,0-1.021,1.021v20.3h-9.322A1.022,1.022,0,0,0,543,272.345v17.31a6.2,6.2,0,0,0,6.193,6.193h22.661l-.491.788a4.59,4.59,0,0,0-.126,4.774,5.037,5.037,0,0,0,4.3,2.624,4.641,4.641,0,0,0,2.5-.745l17.594-11.063a9.135,9.135,0,0,0,4.007-9.54,19.787,19.787,0,0,0,7.123-1.762c2.365-1.11,3.617-2.4,3.662-3.749C610.471,277.116,610.469,277.108,610.424,276.876Zm-57.081,12.779a4.15,4.15,0,1,1-8.3,0V273.367h8.3Zm.442,4.15a6.169,6.169,0,0,0,1.6-4.15V252.043H588.5v22.832a8.979,8.979,0,0,0-3.115,1.143,5.378,5.378,0,0,0-.758.588,4.12,4.12,0,0,1-.811.605l-.024.012-.019.018a9.439,9.439,0,0,0-1.421,1.749l-1.995,3.2h-9.85a1.021,1.021,0,0,0,0,2.043h8.578l-5.961,9.571Zm43.823-6.991a7.115,7.115,0,0,1-2.979,3.818l-5.381,3.383-2.832-2.832a.889.889,0,0,0-.634-.276,1.014,1.014,0,0,0-.9.629.875.875,0,0,0,.208.979l2.528,2.528-10.58,6.653a2.837,2.837,0,0,1-1.526.456,3.08,3.08,0,0,1-2.628-1.606,2.8,2.8,0,0,1,.08-2.915l1.287-2.066,1.9,1.9a.888.888,0,0,0,.634.277,1.014,1.014,0,0,0,.9-.629.877.877,0,0,0-.207-.98l-2.209-2.2,8.683-13.941a7.177,7.177,0,0,1,.464-.658l4.207,4.206a.891.891,0,0,0,.635.276,1.014,1.014,0,0,0,.9-.628.877.877,0,0,0-.207-.98l-4.183-4.183a7.18,7.18,0,0,1,9.23.678l.855.848A7.2,7.2,0,0,1,597.608,286.814Zm9.446-8.183a16.471,16.471,0,0,1-8.033,2.2,6.685,6.685,0,0,0-.506-.942c-.023-.039-.047-.077-.067-.108a6.586,6.586,0,0,0-.566-.792l-.077-.094-.14-.166-.011-.021-.015-.01a1.574,1.574,0,0,0-.121-.134c-.283-.309-.586-.606-.879-.894l-.322-.316q-.166-.148-.323-.306l-.033-.029a4.634,4.634,0,0,0-.515-.39,3.673,3.673,0,0,1-.527-.408l-.013-.013-.015-.01c-.192-.125-.388-.242-.584-.35l-.028-.015c-.1-.056-.2-.109-.3-.158-.044-.023-.088-.045-.133-.066a16.875,16.875,0,0,1,2.049-7.757l.023-.039c.271-.464.989-1.7,1.646-1.7a.5.5,0,0,1,.1.01c.785.157.973,2.013,1.034,2.623l0,.045a13.371,13.371,0,0,1,.046,1.956c0,.084-.012.173-.02.266-.045.5-.106,1.179.529,1.455a.718.718,0,0,0,.288.058c.749,0,1.72-1.08,2.429-1.869.237-.263.441-.491.581-.614a18.933,18.933,0,0,1,3.167-2.342l.175-.1a4.36,4.36,0,0,1,1.7-.705.569.569,0,0,1,.176.025,2.248,2.248,0,0,1-.305,1.115l-.061.133a13.615,13.615,0,0,1-1.695,2.7,26.629,26.629,0,0,1-2.378,2.674l-.114.111c-.454.44-1.139,1.1-1,1.688a.905.905,0,0,0,.689.6,1.509,1.509,0,0,0,.469.064,5.253,5.253,0,0,0,.642-.054,4.724,4.724,0,0,1,.519-.046h.1a12.013,12.013,0,0,1,1.326.067,5.6,5.6,0,0,1,1.985.5c.339.18.514.387.522.613C608.481,277.5,607.966,278.062,607.055,278.631Z"/></g></svg>