<svg xmlns="http://www.w3.org/2000/svg" width="50.338" height="65.613" viewBox="0 0 50.338 65.613"><defs><style>.a{fill:#fff;}</style></defs><g transform="translate(-682.593 -365.949)"><path class="a" d="M683.543,431.562a.95.95,0,0,1-.939-1.1l1.386-8.909.958-10.23-.954-13.916a.955.955,0,0,1,.453-.809.843.843,0,0,1,.2-.093L684.2,394.6a9.481,9.481,0,0,1-.244-2.261,4.533,4.533,0,0,0,.15-1.063,5.468,5.468,0,0,1,.118-.961,9.1,9.1,0,0,1,3.915-5.459c-1.615-1.83-4.907-6.094-4.4-9.939.248-1.89,1.329-2.287,2.193-2.287a7.8,7.8,0,0,1,4.256,1.967,21.2,21.2,0,0,1,.728-5.391c.254-.884.849-2.955,2.4-3.225a2.21,2.21,0,0,1,.382-.034c2.55,0,3.265,4.562,3.4,8.576.233-.211.467-.408.7-.588a1.977,1.977,0,0,1,1.939-1.3,3.189,3.189,0,0,1,.361.022,2.753,2.753,0,0,1,.967-.172,2.4,2.4,0,0,1,2.3,1.639c.221.159.428.319.616.476a21.16,21.16,0,0,1,.727-5.392c.253-.884.846-2.954,2.394-3.225a2.222,2.222,0,0,1,.383-.034c2.549,0,3.264,4.562,3.4,8.576a10.558,10.558,0,0,1,2.064-1.495,1.833,1.833,0,0,1,.811-.349,3.358,3.358,0,0,1,1.092-.2,2.415,2.415,0,0,1,1.364.409,2.326,2.326,0,0,1,.619.608,9.215,9.215,0,0,1,1.622,1.1,21.148,21.148,0,0,1,.728-5.391c.254-.884.848-2.955,2.394-3.225a2.231,2.231,0,0,1,.383-.034c2.55,0,3.265,4.561,3.4,8.576,1.505-1.355,2.836-2.042,3.958-2.042a2.431,2.431,0,0,1,1.373.412c1.345.9,1.514,2.8.5,5.645a19.926,19.926,0,0,1-3.77,6.32,9.223,9.223,0,0,1,3.962,9.632l-.455,2.036a.721.721,0,0,1,.166.076.954.954,0,0,1,.452.808l-1.388,13.974,1.381,10.2,1.384,8.878a.95.95,0,0,1-.939,1.1Zm47.328-1.9-1.225-7.871a1,1,0,0,1-.011-.146l-1.381-10.266,1.388-12.419L726,400.807a.953.953,0,0,1-.883-.013l-4.238-2.3-4.232,2.294a.95.95,0,0,1-.453.115.964.964,0,0,1-.436-.106l-4.025-2.079-3.567,1.649a.956.956,0,0,1-.8,0l-3.568-1.649-4.025,2.079a.95.95,0,0,1-.889-.009l-4.232-2.294-4.238,2.3a.959.959,0,0,1-.882.013L685.9,398.96l.953,12.419-.96,10.266a.881.881,0,0,1-.012.146l-1.224,7.871ZM689.95,398.887l4.253-2.31a.95.95,0,0,1,.906,0l3.839,2.082-.961-4.057a9.579,9.579,0,0,1-.244-2.26,4.61,4.61,0,0,0,.152-1.063,5.387,5.387,0,0,1,.117-.963,9.109,9.109,0,0,1,.858-2.187c.125-.227.266-.443.412-.657a7.206,7.206,0,0,0-5.042-2.1l-1.263.011a7.234,7.234,0,0,0-6.989,6.054l5.923-.025a.976.976,0,0,1,0,1.951l-5.951.027a7.317,7.317,0,0,0,.137.761l.749,3.161Zm30.93-2.425a.956.956,0,0,1,.453.115l4.253,2.31,3.171-1.61.718-3.211a7.122,7.122,0,0,0-.616-4.812,7.219,7.219,0,0,0-6.354-3.881l-1.266.011a7.116,7.116,0,0,0-5.378,2.554,9.292,9.292,0,0,1,1.181,3.488l3.127-.013a.976.976,0,0,1,.008,1.951l-3.1.014a8.58,8.58,0,0,1-.172,1.114l-.952,4.264.236.121,4.242-2.3A.953.953,0,0,1,720.88,396.462Zm-17.1.248a.947.947,0,0,1,.4.087l3.592,1.66,3.59-1.66a.947.947,0,0,1,.4-.087.96.96,0,0,1,.436.105l1.963,1.014.841-3.763a7.122,7.122,0,0,0-.615-4.812l-.026-.05v-.01a7.275,7.275,0,0,0-6.33-3.821l-1.265.011a7.236,7.236,0,0,0-6.989,6.054l5.918-.025a.976.976,0,0,1,.008,1.951l-5.951.027a7.316,7.316,0,0,0,.137.761l.939,3.964,2.517-1.3A.963.963,0,0,1,703.778,396.71Zm10.742-7.574.023-.017Zm.065-.048.116-.08Zm-1.645-4.228a9.053,9.053,0,0,1,1.733,1.463,9.032,9.032,0,0,1,1.73-1.465,25.355,25.355,0,0,1-1.768-2.245A21.34,21.34,0,0,1,712.94,384.86Zm-13.787,0a9.018,9.018,0,0,1,1.385,1.107,9.108,9.108,0,0,1,1.389-1.108c-.5-.562-.973-1.152-1.419-1.757A20.7,20.7,0,0,1,699.153,384.859Zm.879-10.378a.608.608,0,0,0-.348.1c-.562.378-.153,1.907-.018,2.409a16.948,16.948,0,0,0,4.081,6.975c.041-.015.341-.115.453-.148.252-.075.474-.13.7-.179a3.986,3.986,0,0,0,.7-.092,4.651,4.651,0,0,1,.646-.092c.2,0,.345-.008.491-.017,0,0,.879-.013,1.1-.013.206,0,.412,0,.618.012l.011.2v-.2a1.665,1.665,0,0,1,.2.012l.349.03a6.714,6.714,0,0,1,.974.157l.124.029a6.677,6.677,0,0,1,1.017.3,16.53,16.53,0,0,0,4.1-7.27c.236-1.042.19-1.816-.124-2.071a2.356,2.356,0,0,0-.4-.117,1.275,1.275,0,0,0-.346.061,5.606,5.606,0,0,0-1.756,1.056,12.447,12.447,0,0,0-1.058.973,4.666,4.666,0,0,0-.333.4,2.694,2.694,0,0,1-.8.794,1.279,1.279,0,0,1-.577.165.682.682,0,0,1-.5-.208,2.814,2.814,0,0,1-.376-1.832v-.16a26.848,26.848,0,0,0-.225-3.587,13.432,13.432,0,0,0-.725-3.114l-.053-.14a2.339,2.339,0,0,0-.553-.984c-.417.229-.692,1.319-.813,1.8l-.05.2a19.025,19.025,0,0,0-.57,3.915c-.011.192.008.495.027.848.072,1.234.169,2.925-.648,3.251a.929.929,0,0,1-.349.07c-.482,0-.823-.4-1.1-.73-.06-.071-.119-.14-.175-.2a13.409,13.409,0,0,0-1.428-1.349A4.891,4.891,0,0,0,700.032,374.481Zm15.721,6.216a19.293,19.293,0,0,0,2.471,3.264c.041-.015.341-.115.454-.148.251-.075.472-.13.7-.179a3.95,3.95,0,0,0,.7-.092,4.728,4.728,0,0,1,.647-.092c.2,0,.344-.008.491-.017,0,0,.88-.013,1.1-.013s.413,0,.618.012l.012.2v-.2a1.682,1.682,0,0,1,.2.012l.35.03a6.733,6.733,0,0,1,.972.157l.1.025a6.771,6.771,0,0,1,1.035.3,16.633,16.633,0,0,0,4.075-7.171l.113.024-.112-.027c.241-1.07.226-1.806-.021-2.114a.5.5,0,0,0-.42-.18,1.436,1.436,0,0,0-.41.071,5.618,5.618,0,0,0-1.756,1.056,12.443,12.443,0,0,0-1.057.973,4.472,4.472,0,0,0-.333.4,2.718,2.718,0,0,1-.8.794,1.278,1.278,0,0,1-.577.165.68.68,0,0,1-.5-.208,2.808,2.808,0,0,1-.376-1.832v-.16a26.373,26.373,0,0,0-.226-3.587,13.6,13.6,0,0,0-.724-3.114l-.051-.136a2.342,2.342,0,0,0-.556-.988c-.417.228-.691,1.319-.812,1.8l-.05.2a19.036,19.036,0,0,0-.57,3.915c-.011.192.007.493.028.844.071,1.236.168,2.929-.65,3.255a.924.924,0,0,1-.348.07c-.483,0-.823-.4-1.1-.73-.059-.071-.118-.14-.175-.2-.275-.3-.576-.594-.895-.882a11.159,11.159,0,0,1-.589,2.35A17.294,17.294,0,0,1,715.753,380.7Zm-29.508-6.216a.612.612,0,0,0-.349.1c-.561.378-.152,1.907-.017,2.409a16.955,16.955,0,0,0,4.081,6.975c.041-.015.342-.115.454-.148.252-.075.473-.13.7-.179a3.974,3.974,0,0,0,.7-.092,4.693,4.693,0,0,1,.646-.092c.2,0,.345-.008.491-.017,0,0,.88-.013,1.1-.013s.412,0,.618.012l.012.2v-.2a1.679,1.679,0,0,1,.2.012l.35.03a6.791,6.791,0,0,1,.973.157l.1.024a6.885,6.885,0,0,1,1.037.3,19.807,19.807,0,0,0,2.013-2.584,12.728,12.728,0,0,1-1.794-4.563l-.141.18a2.694,2.694,0,0,1-.8.794,1.279,1.279,0,0,1-.577.165.681.681,0,0,1-.5-.208,2.814,2.814,0,0,1-.376-1.832v-.16a26.526,26.526,0,0,0-.225-3.587,13.659,13.659,0,0,0-.725-3.114l-.051-.136a2.321,2.321,0,0,0-.556-.988c-.417.228-.691,1.319-.812,1.8l-.05.2a19.039,19.039,0,0,0-.569,3.915c-.011.192.008.495.027.847.071,1.235.168,2.926-.649,3.252a.929.929,0,0,1-.349.07c-.483,0-.824-.4-1.1-.731-.059-.07-.117-.139-.174-.2a13.7,13.7,0,0,0-1.427-1.349A4.91,4.91,0,0,0,686.245,374.481Z"/><path class="a" d="M716.416,373.481c-.049,0-.065-.012-.248-.133l.094-.174-.11.163-.165-.109c-.744-.5-.744-.5-.7-.641l.044-.141h.148c.065,0,.065,0,.9.559.226.15.286.191.245.331l-.041.141Z"/></g></svg>